<svg xmlns="http://www.w3.org/2000/svg" width="500" height="500" viewBox="0 0 1000 1000">
  <defs>
    <style>
      .cls-1 {
        fill: #bada55;
        stroke: none;
        stroke-width: 5px;
        fill-rule: evenodd;
      }
    </style>
  </defs>
  <path id="Polygon_1" data-name="Polygon 1" class="cls-1" d="M843.746,756.462Q775.84,775.652,756.7,843.574t-87.545,50.587q-68.4-17.335-118.941,31.915t-101.109.035Q398.53,876.9,330.139,894.279t-87.581-50.526q-19.191-67.91-87.111-87.052t-50.586-87.549Q122.2,600.746,72.945,550.207T72.908,449.1q49.213-50.574,31.83-118.968t50.523-87.583q67.907-19.191,87.048-87.113t87.545-50.586q68.4,17.335,118.941-31.916T549.9,72.894q50.572,49.215,118.964,31.833t87.582,50.526q19.189,67.908,87.11,87.051t50.587,87.549Q876.813,398.259,926.063,448.8T926.1,549.911q-49.214,50.573-31.83,118.967T843.746,756.462Z"/>
</svg>
